{"title":"Triptank Season 1 s01e01-s01e08 COMPLETE 720p HDTV x264 Eng Subs","uid":10376289,"size":3399978599,"categoryP":"video","categoryS":"hd___tv_shows","magnet":"?xt=urn:btih:6e52b277800d2d4f6e71f57e3fe0a8dbd10f3b91&amp;dn=Triptank+Season+1+s01e01-s01e08+COMPLETE+720p+HDTV+x264+Eng+Subs&amp;tr=udp%3A%2F%2Ftracker.openbittorrent.com%3A80&amp;tr=udp%3A%2F%2Fopen.demonii.com%3A1337&amp;tr=udp%3A%2F%2Ftracker.coppersurfer.tk%3A6969&amp;tr=udp%3A%2F%2Fexodus.desync.com%3A6969","seeders":9,"leechers":0,"uploader":"ProphetZarquon","files":16,"time":1403003734,"description":"Triptank showcases animated shorts so volatile that they should come with a recommended dosage. Combining a range of animation styles and a diverse cast including Wayne Brady, Kumail Nanjiani and Zach Galifianakis, the show promises to offer all the euphoria of a potent hallucinogen without any of the puking. --\n\nThe sickest, most twisted animated shorts ever put on television. -- imdb.com\n\n=====\n\n720p encodes courtesy of KILLERS\nEnglish .srt subtitle files (optional) courtesy of Addic7ed\n\n=====\n\nShare this easy magnet link:\n\nmgnet.me/.triptank\n\nThank You For Downloading\n\n=====\n\nGeneral\nComplete name : G:TempTriptankTriptank.s01e01.Shovels.Are.for.Digging.real.720p.hdtv.x264-killers.mkv\nFormat : Matroska\nFormat version : Version 4 / Version 2\nFile size : 389 MiB\nDuration : 21mn 10s\nOverall bit rate : 2 566 Kbps\nEncoded date : UTC 2014-04-03 03:54:28\nWriting application : mkvmerge v6.0.0 ('Coming Up For Air') built on Jan 20 2013 10:28:01\nWriting library : libebml v1.3.0 + libmatroska v1.4.0\n\nVideo\nID : 1\nFormat : AVC\nFormat/Info : Advanced Video Codec\nFormat profile : &lt;a class=&quot;__cf_email__&quot; href=&quot;/cdn-cgi/l/email-protection&quot; data-cfemail=&quot;9cd4f5fbf4dcd0a8b2ad&quot;&gt;[email&amp;#160;protected]&lt;/a&gt;&lt;script cf-hash='f9e31' type=&quot;text/javascript&quot;&gt;\n/* &lt;![CDATA[ */!function(){try{var t=&quot;currentScript&quot;in document?document.currentScript:function(){for(var t=document.getElementsByTagName(&quot;script&quot;),e=t.length;e--;)if(t[e].getAttribute(&quot;cf-hash&quot;))return t[e]}();if(t&amp;&amp;t.previousSibling){var e,r,n,i,c=t.previousSibling,a=c.getAttribute(&quot;data-cfemail&quot;);if(a){for(e=&quot;&quot;,r=parseInt(a.substr(0,2),16),n=2;a.length-n;n+=2)i=parseInt(a.substr(n,2),16)^r,e+=String.fromCharCode(i);e=document.createTextNode(e),c.parentNode.replaceChild(e,c)}}}catch(u){}}();/* ]]&gt; */&lt;/script&gt;\nFormat settings, CABAC : Yes\nFormat settings, ReFrames : 5 frames\nCodec ID : V_MPEG4/ISO/AVC\nDuration : 21mn 10s\nBit rate : 2 131 Kbps\nWidth : 1 280 pixels\nHeight : 720 pixels\nDisplay aspect ratio : 16:9\nFrame rate mode : Constant\nFrame rate : 23.976 fps\nColor space : YUV\nChroma subsampling : 4:2:0\nBit depth : 8 bits\nScan type : Progressive\nBits/(Pixel*Frame) : 0.096\nStream size : 323 MiB (83%)\nWriting library : x264 core 142 r2409 d6b4e63\nEncoding settings : cabac=1 / ref=5 / deblock=1:0:0 / analyse=0x3:0x113 / me=umh / subme=8 / psy=1 / psy_rd=1.00:0.00 / mixed_ref=1 / me_range=16 / chroma_me=1 / trellis=1 / 8x8dct=1 / cqm=0 / deadzone=21,11 / fast_pskip=1 / chroma_qp_offset=-2 / threads=12 / lookahead_threads=2 / sliced_threads=0 / nr=0 / decimate=1 / interlaced=0 / bluray_compat=0 / constrained_intra=0 / bframes=3 / b_pyramid=2 / b_adapt=2 / b_bias=0 / direct=3 / weightb=1 / open_gop=0 / weightp=2 / keyint=250 / keyint_min=23 / scenecut=40 / intra_refresh=0 / rc_lookahead=50 / rc=crf / mbtree=1 / crf=18.0 / qcomp=0.60 / qpmin=0 / qpmax=69 / qpstep=4 / ip_ratio=1.40 / aq=1:1.00\nLanguage : English\nDefault : Yes\nForced : No\nMatrix coefficients : BT.709\n\nAudio\nID : 2\nFormat : AC-3\nFormat/Info : Audio Coding 3\nMode extension : CM (complete main)\nFormat settings, Endianness : Big\nCodec ID : A_AC3\nDuration : 21mn 10s\nBit rate mode : Constant\nBit rate : 384 Kbps\nChannel(s) : 6 channels\nChannel positions : Front: L C R, Side: L R, LFE\nSampling rate : 48.0 KHz\nBit depth : 16 bits\nCompression mode : Lossy\nStream size : 58.2 MiB (15%)\nDefault : Yes\nForced : No","torrent":{"xt":"urn:btih:6e52b277800d2d4f6e71f57e3fe0a8dbd10f3b91","amp;dn":"Triptank+Season+1+s01e01-s01e08+COMPLETE+720p+HDTV+x264+Eng+Subs","amp;tr":["udp%3A%2F%2Ftracker.openbittorrent.com%3A80","udp%3A%2F%2Fopen.demonii.com%3A1337","udp%3A%2F%2Ftracker.coppersurfer.tk%3A6969","udp%3A%2F%2Fexodus.desync.com%3A6969"],"infoHash":"6e52b277800d2d4f6e71f57e3fe0a8dbd10f3b91","infoHashBuffer":{"type":"Buffer","data":[110,82,178,119,128,13,45,79,110,113,245,126,63,224,168,219,209,15,59,145]},"announce":[],"urlList":[]}}